# xmcd
#
# Track frame offsets:
#  151
#  12736
#  27703
#  40388
#  52859
#  71236
#  86265
#  97000
#  110423
#  126316
#
# Disc length: 1852 seconds
#
# Revision: 0
# Processed by: cddbd v1.4PL0 Copyright (c) Steve Scherf et al.
# Submitted via: AltoMP3_Maker 3.0
#
DISCID=8c073a0a
DTITLE=Don Williams - I Believe In Love
DYEAR=1900
DGENRE=
TTITLE0=Falling Again
TTITLE1=It's Good To See You
TTITLE2=I Want You Back Again
TTITLE3=Simple Song
TTITLE4=I Believe In Love
TTITLE5=Ain't It Amazing
TTITLE6=Just Enought Love (For One Woman)
TTITLE7=I Keep Putting It Off
TTITLE8=Rainy Nights And Memories
TTITLE9=Slowly But Surely
EXTD=
EXTT0=
EXTT1=
EXTT2=
EXTT3=
EXTT4=
EXTT5=
EXTT6=
EXTT7=
EXTT8=
EXTT9=
PLAYORDER=
